<?xml version="1.0" encoding="utf-8"?>
<!-- Generator: Adobe Illustrator 16.0.0, SVG Export Plug-In . SVG Version: 6.00 Build 0)  -->
<!DOCTYPE svg PUBLIC "-//W3C//DTD SVG 1.1//EN" "http://www.w3.org/Graphics/SVG/1.1/DTD/svg11.dtd">
<svg version="1.1" id="Layer_1" xmlns="http://www.w3.org/2000/svg" xmlns:xlink="http://www.w3.org/1999/xlink" x="0px" y="0px"
	 width="103.667px" height="94.999px" viewBox="0 0 103.667 94.999" enable-background="new 0 0 103.667 94.999"
	 xml:space="preserve">
<path fill-rule="evenodd" clip-rule="evenodd" fill="#FF9921" d="M81.43,81.346c0,0.714,0,1.259,0,1.908
	c-11.469,0-22.909,0-34.457,0c0-11.872,0-23.719,0-35.702c-0.421,0.14-0.716,0.209-0.987,0.332c-4.422,1.993-8.832,4.013-13.27,5.97
	c-0.821,0.363-1.032,0.842-1.029,1.694c0.033,8.731,0.023,17.463,0.026,26.195c0,0.497,0,0.993,0,1.551c-2.234,0-4.331,0-6.497,0
	c0-0.659,0-1.259,0-1.981c0.959,0,1.882,0,2.998,0c0-0.605,0-1.094,0-1.583c0.001-8.81,0.018-17.621-0.019-26.431
	c-0.003-0.915,0.243-1.379,1.104-1.751c3.375-1.459,6.702-3.027,10.069-4.505c0.71-0.312,1.011-0.681,0.983-1.483
	c-0.062-1.799-0.053-3.603,0.01-5.402c0.013-0.372,0.3-0.916,0.613-1.069c5.588-2.727,11.201-5.405,16.913-8.144
	c0.908,1.066,1.815,2.128,2.718,3.193c1.595,1.881,3.163,3.787,4.795,5.635c0.583,0.66,0.863,1.324,0.808,2.209
	c-0.068,1.084-0.017,2.175-0.017,3.446c1.215-0.538,2.29-0.977,3.33-1.489c0.546-0.269,0.882-0.204,1.308,0.252
	c2.375,2.549,4.811,5.043,7.165,7.612c0.341,0.372,0.496,1.044,0.498,1.578c0.03,8.771,0.021,17.542,0.021,26.313
	c0,0.496,0,0.991,0,1.65C79.604,81.346,80.515,81.346,81.43,81.346z M57.833,81.231c0-15.76,0-31.411,0-47.187
	c-4.83,2.322-9.517,4.568-14.19,6.84c-0.233,0.113-0.501,0.441-0.512,0.68c-0.052,1.188-0.023,2.38-0.023,3.743
	c1.028-0.453,1.88-0.749,2.649-1.188c0.812-0.463,1.328-0.383,1.986,0.343c2.182,2.405,4.482,4.701,6.667,7.104
	c0.417,0.458,0.723,1.208,0.727,1.825c0.046,8.804,0.031,17.609,0.032,26.414c0,0.456,0,0.912,0,1.427
	C56.13,81.231,56.938,81.231,57.833,81.231z M66.193,81.214c1.447,0,2.715,0,4.019,0c0-11.239,0-22.395,0-33.705
	c-1.076,0.48-2.01,0.966-2.992,1.314c-0.851,0.302-1.049,0.809-1.045,1.669c0.03,9.816,0.02,19.633,0.019,29.451
	C66.193,80.328,66.193,80.716,66.193,81.214z"/>
<path fill-rule="evenodd" clip-rule="evenodd" fill="#FF9921" d="M34.199,60.846c0-1.159-0.03-2.131,0.021-3.099
	c0.014-0.246,0.237-0.593,0.458-0.698c2.844-1.358,5.705-2.68,8.741-4.095c0,1.642,0.022,3.106-0.023,4.569
	c-0.007,0.219-0.293,0.549-0.517,0.621C40.059,59.045,37.228,59.91,34.199,60.846z"/>
<path fill-rule="evenodd" clip-rule="evenodd" fill="#FF9921" d="M34.269,79.24c3.05,0,6.013,0,9.066,0c0,1.323,0,2.629,0,4.014
	c-3,0-5.993,0-9.066,0C34.269,81.925,34.269,80.647,34.269,79.24z"/>
<path fill-rule="evenodd" clip-rule="evenodd" fill="#FF9921" d="M54.584,25.99c-0.914,0-1.688,0-2.554,0c0-4.462,0-8.89,0-13.406
	c0.819,0,1.65,0,2.554,0C54.584,17.043,54.584,21.471,54.584,25.99z"/>
<path fill-rule="evenodd" clip-rule="evenodd" fill="#FF9921" d="M93.125,34.735c0.456,0.78,0.868,1.483,1.356,2.32
	c-3.895,2.25-7.759,4.483-11.693,6.756c-0.459-0.784-0.87-1.483-1.358-2.316C85.337,39.236,89.201,37.003,93.125,34.735z"/>
<path fill-rule="evenodd" clip-rule="evenodd" fill="#FF9921" d="M37.832,29.805c-0.831,0.478-1.532,0.88-2.334,1.34
	c-2.26-3.913-4.477-7.749-6.754-11.695c0.803-0.464,1.529-0.884,2.33-1.347C33.334,22.017,35.553,25.86,37.832,29.805z"/>
<path fill-rule="evenodd" clip-rule="evenodd" fill="#FF9921" d="M43.365,70.801c0,1.42,0,2.739,0,4.237
	c-2.986,0.149-5.972,0.298-9.158,0.458c0-1.138-0.031-2.177,0.027-3.21c0.012-0.198,0.355-0.515,0.575-0.542
	C37.634,71.408,40.466,71.113,43.365,70.801z"/>
<path fill-rule="evenodd" clip-rule="evenodd" fill="#FF9921" d="M75.519,18.098c0.833,0.483,1.531,0.891,2.328,1.353
	c-2.258,3.913-4.472,7.75-6.746,11.69c-0.805-0.46-1.532-0.875-2.338-1.336C71.025,25.885,73.241,22.044,75.519,18.098z"/>
<path fill-rule="evenodd" clip-rule="evenodd" fill="#FF9921" d="M25.164,41.491c-0.465,0.799-0.872,1.498-1.351,2.321
	c-3.919-2.26-7.784-4.491-11.698-6.75c0.463-0.805,0.869-1.51,1.341-2.329C17.37,36.992,21.233,39.222,25.164,41.491z"/>
<path fill-rule="evenodd" clip-rule="evenodd" fill="#FF9921" d="M34.202,67.948c0-1.057-0.035-1.949,0.024-2.836
	c0.015-0.232,0.28-0.58,0.5-0.646c2.833-0.861,5.68-1.681,8.622-2.541c0,1.523,0,2.941,0,4.501
	C40.384,66.919,37.397,67.416,34.202,67.948z"/>
<path fill-rule="evenodd" clip-rule="evenodd" fill="#FF9921" d="M99.972,60.564c-4.446,0-8.844,0-13.334,0c0-0.812,0-1.612,0-2.519
	c4.397,0,8.82,0,13.334,0C99.972,58.824,99.972,59.623,99.972,60.564z"/>
<path fill-rule="evenodd" clip-rule="evenodd" fill="#FF9921" d="M19.939,60.563c-4.465,0-8.869,0-13.341,0c0-0.856,0-1.655,0-2.539
	c4.454,0,8.857,0,13.341,0C19.939,58.84,19.939,59.672,19.939,60.563z"/>
<path fill-rule="evenodd" clip-rule="evenodd" fill="#FF9921" d="M70.211,47.509c0,11.31,0,22.466,0,33.705"/>
</svg>
