<?xml version="1.0" encoding="utf-8"?>
<!-- Generator: Adobe Illustrator 16.0.0, SVG Export Plug-In . SVG Version: 6.00 Build 0)  -->
<!DOCTYPE svg PUBLIC "-//W3C//DTD SVG 1.1//EN" "http://www.w3.org/Graphics/SVG/1.1/DTD/svg11.dtd">
<svg version="1.1" id="Layer_1" xmlns="http://www.w3.org/2000/svg" xmlns:xlink="http://www.w3.org/1999/xlink" x="0px" y="0px"
	 width="103.667px" height="94.999px" viewBox="0 0 103.667 94.999" enable-background="new 0 0 103.667 94.999"
	 xml:space="preserve">
<g>
	<path fill-rule="evenodd" clip-rule="evenodd" fill="#FF9921" d="M51.219,11.432c7.938,0.076,14.186,2.979,18.857,8.983
		c3.541,4.554,5.193,9.762,4.729,15.56c-0.188,2.34-0.977,4.539-1.838,6.705c-1.725,4.338-3.98,8.404-6.404,12.381
		c-2.8,4.591-5.789,9.055-9.019,13.356c-0.345,0.458-0.724,0.895-1.124,1.303c-2.523,2.576-6.799,2.586-9.25-0.09
		c-1.256-1.373-2.329-2.923-3.41-4.445c-3.42-4.818-6.64-9.765-9.464-14.959c-1.704-3.133-3.218-6.35-4.406-9.722
		c-1.681-4.768-1.477-9.502,0.364-14.123c3.455-8.672,9.959-13.534,19.156-14.854C50.121,11.424,50.85,11.449,51.219,11.432z
		 M31.876,34.013c-0.042,0.005-0.085,0.011-0.127,0.016c0.142,1.134,0.191,2.289,0.444,3.398c0.718,3.135,2.063,6.037,3.512,8.889
		c2.771,5.46,6.044,10.617,9.523,15.645c1.24,1.791,2.492,3.58,3.854,5.277c1.468,1.831,3.955,1.795,5.5,0.031
		c0.338-0.387,0.67-0.786,0.959-1.211c2.377-3.493,4.805-6.952,7.099-10.5c2.775-4.293,5.29-8.741,7.278-13.465
		c0.736-1.751,1.436-3.527,1.7-5.421c0.728-5.21-0.554-9.939-3.732-14.087c-4.708-6.145-11.064-8.819-18.683-7.923
		C40.053,15.738,31.904,23.778,31.876,34.013z"/>
	<path fill-rule="evenodd" clip-rule="evenodd" fill="#FF9921" d="M51.834,83.566c-2.5-0.1-5.015-0.071-7.5-0.327
		c-5.83-0.604-11.555-1.742-16.984-4.052c-3.061-1.302-5.887-2.962-8.152-5.466c-1.387-1.533-2.386-3.238-2.65-5.325
		c-0.286-2.265,0.416-4.248,1.729-6.043c1.648-2.255,3.819-3.906,6.241-5.243c2.918-1.611,6.047-2.682,9.24-3.587
		c0.295-0.084,0.491-0.008,0.641,0.226c0.387,0.607,0.768,1.219,1.145,1.832c0.214,0.347,0.124,0.541-0.279,0.672
		c-1.832,0.596-3.673,1.176-5.48,1.84c-2.582,0.948-5.062,2.117-7.142,3.963c-0.732,0.651-1.416,1.382-2.005,2.165
		c-1.385,1.843-1.37,4.576-0.033,6.461c1.344,1.895,3.166,3.226,5.171,4.33c3.093,1.701,6.415,2.786,9.817,3.664
		c5.854,1.511,11.815,1.828,17.83,1.781c6.188-0.048,12.234-0.893,18.131-2.767c2.973-0.944,5.83-2.148,8.392-3.964
		c1.494-1.059,2.829-2.284,3.616-3.975c0.711-1.522,0.701-3.091-0.018-4.606c-0.8-1.683-2.135-2.907-3.633-3.962
		c-2.382-1.678-5.033-2.805-7.771-3.741c-1.184-0.404-2.385-0.755-3.58-1.121c-0.762-0.233-0.766-0.231-0.351-0.923
		c0.272-0.454,0.559-0.902,0.81-1.368c0.225-0.412,0.551-0.561,0.991-0.457c0.429,0.102,0.854,0.216,1.276,0.346
		c3.303,1.017,6.508,2.261,9.418,4.164c2.041,1.333,3.871,2.891,5.166,4.995c1.906,3.096,1.728,6.606-0.471,9.51
		c-1.955,2.585-4.507,4.411-7.392,5.818c-3.88,1.893-7.992,3.043-12.206,3.891C61.189,83.223,56.534,83.594,51.834,83.566z"/>
	<path fill-rule="evenodd" clip-rule="evenodd" fill="#FF9921" d="M51.806,23.652c6.351-0.136,10.647,5.539,10.505,10.667
		c-0.152,5.517-4.869,10.339-10.476,10.254C45.49,44.477,41.329,39.332,41.371,34.1C41.418,28.258,46.002,23.642,51.806,23.652z
		 M51.836,41.423c3.988,0.29,7.465-3.425,7.425-7.346c-0.021-2.06-0.786-3.808-2.22-5.269c-1.533-1.563-3.428-2.049-5.576-2.069
		c-3.773-0.035-7.035,3.399-7.076,7.348C44.347,38.022,47.996,41.76,51.836,41.423z"/>
</g>
</svg>
