<?xml version="1.0" encoding="utf-8"?>
<!-- Generator: Adobe Illustrator 16.0.0, SVG Export Plug-In . SVG Version: 6.00 Build 0)  -->
<!DOCTYPE svg PUBLIC "-//W3C//DTD SVG 1.1//EN" "http://www.w3.org/Graphics/SVG/1.1/DTD/svg11.dtd">
<svg version="1.1" id="Layer_1" xmlns="http://www.w3.org/2000/svg" xmlns:xlink="http://www.w3.org/1999/xlink" x="0px" y="0px"
	 width="103.667px" height="94.999px" viewBox="0 0 103.667 94.999" enable-background="new 0 0 103.667 94.999"
	 xml:space="preserve">
<path fill-rule="evenodd" clip-rule="evenodd" fill="#FF9921" d="M18.115,48.441c0.003-19.339,15.585-34.854,35.002-34.851
	c19.241,0.003,34.797,15.639,34.775,34.955c-0.022,19.297-15.6,34.869-34.878,34.86C33.651,83.396,18.112,67.829,18.115,48.441z
	 M53.076,78.917c16.867-0.035,30.337-13.698,30.317-30.753c-0.02-16.563-13.869-30.237-30.588-30.095
	c-17.45,0.148-30.455,14.674-30.229,30.891C22.804,65.361,36.468,78.951,53.076,78.917z"/>
<path fill-rule="evenodd" clip-rule="evenodd" fill="#FF9921" d="M43.891,57.651c2.111,0.612,4.048,1.397,6.056,1.684
	c1.537,0.217,3.271,0.108,4.731-0.394c3.049-1.05,3.547-4.499,0.992-6.465c-1.156-0.889-2.586-1.424-3.907-2.088
	c-1.765-0.886-3.678-1.548-5.296-2.646c-4.829-3.278-4.658-10.172,0.281-13.292c1.063-0.671,2.312-1.083,3.521-1.471
	c0.634-0.205,0.873-0.458,0.856-1.104c-0.033-1.275-0.01-2.551-0.01-3.922c1.35,0,2.605,0,4.007,0c0,1.441,0,2.905,0,4.395
	c1.534,0.29,2.942,0.525,4.336,0.831c0.641,0.141,1.247,0.428,1.875,0.63c0.64,0.206,0.788,0.576,0.568,1.219
	c-0.399,1.17-0.725,2.363-1.058,3.469c-1.858-0.478-3.645-1.136-5.482-1.345c-1.38-0.156-2.932-0.009-4.221,0.487
	c-2.41,0.928-2.843,3.844-0.768,5.366c1.603,1.176,3.545,1.889,5.334,2.81c1.391,0.716,2.874,1.301,4.149,2.183
	c4.796,3.316,4.771,10.656-0.066,13.931c-1.204,0.815-2.65,1.317-4.045,1.783c-0.695,0.231-0.919,0.485-0.897,1.176
	c0.041,1.358,0.012,2.719,0.012,4.158c-1.389,0-2.683,0-4.088,0c0-1.624,0-3.18,0-4.532c-2.298-0.592-4.495-1.003-6.575-1.739
	c-1.993-0.705-1.621-0.539-1.15-2.245C43.317,59.537,43.624,58.554,43.891,57.651z"/>
</svg>
