<?xml version="1.0" encoding="utf-8"?>
<!-- Generator: Adobe Illustrator 16.0.0, SVG Export Plug-In . SVG Version: 6.00 Build 0)  -->
<!DOCTYPE svg PUBLIC "-//W3C//DTD SVG 1.1//EN" "http://www.w3.org/Graphics/SVG/1.1/DTD/svg11.dtd">
<svg version="1.1" id="Layer_1" xmlns="http://www.w3.org/2000/svg" xmlns:xlink="http://www.w3.org/1999/xlink" x="0px" y="0px"
	 width="103.667px" height="94.999px" viewBox="0 0 103.667 94.999" enable-background="new 0 0 103.667 94.999"
	 xml:space="preserve">
<g>
	<path fill-rule="evenodd" clip-rule="evenodd" fill="#FF9921" d="M54.074,68.968c0-3.448,0.168-6.517-0.063-9.555
		c-0.145-1.934-0.972-3.808-1.325-5.739c-0.316-1.71,0.407-3.062,2.217-3.253c1.818-0.193,2.708,0.986,2.825,2.732
		c0.128,1.89,0.732,3.792-0.816,5.538c-0.468,0.529-0.231,1.718-0.243,2.605c-0.021,2.448-0.008,4.895-0.008,7.578
		c12.534,0,24.896,0,37.399,0c0,5.347,0,10.458,0,15.735c-25.827,0-51.614,0-77.534,0c0-5.163,0-10.274,0-15.642
		C28.965,68.968,41.318,68.968,54.074,68.968z M20.087,81.07c23.521,0,46.914,0,70.427,0c0-2.865,0-5.585,0-8.441
		c-23.52,0-46.912,0-70.427,0C20.087,75.494,20.087,78.215,20.087,81.07z"/>
	<path fill-rule="evenodd" clip-rule="evenodd" fill="#FF9921" d="M78.93,66.611c-6.368,0-12.405,0.002-18.445-0.006
		c-0.433,0-0.867-0.078-1.396-0.128c0-1.115,0-2.12,0-3.423c5.414,0,10.743,0,16.193,0c0.237-4.09,0.61-7.998-1.106-11.471
		c-1.14-2.308-3.081-4.288-4.92-6.164c-1.452-1.481-3.063-1.479-5.129-0.292c-5.824,3.349-11.883,3.198-17.652-0.25
		c-1.631-0.974-2.787-0.905-4.229,0.044c-3.677,2.42-6.22,5.655-6.747,10.078c-0.307,2.549-0.056,5.165-0.056,7.995
		c5.338,0,10.681,0,16.163,0c0,1.247,0,2.254,0,3.44c-6.568,0-13.153,0-20.169,0c0.229-4.476-0.045-8.939,0.788-13.185
		c1.27-6.465,5.491-10.804,11.771-12.933c0.728-0.246,1.903-0.015,2.543,0.447c5.764,4.157,12.245,4.259,17.819-0.007
		c1.085-0.831,1.898-0.794,3.025-0.353c7.438,2.913,11.116,8.494,11.519,16.316C79.065,59.909,78.93,63.111,78.93,66.611z"/>
	<path fill-rule="evenodd" clip-rule="evenodd" fill="#FF9921" d="M40.042,25.432c0.02-8.453,6.776-15.184,15.257-15.193
		c8.465-0.01,15.242,6.737,15.26,15.188c0.017,8.472-6.738,15.307-15.143,15.32C46.827,40.761,40.021,33.981,40.042,25.432z
		 M67.001,25.526c0.028-6.443-5.162-11.689-11.602-11.729c-6.469-0.04-11.728,5.102-11.8,11.534
		c-0.075,6.533,5.193,11.872,11.716,11.871C61.729,37.2,66.972,31.961,67.001,25.526z"/>
</g>
</svg>
