<?xml version="1.0" encoding="utf-8"?>
<!-- Generator: Adobe Illustrator 24.1.2, SVG Export Plug-In . SVG Version: 6.00 Build 0)  -->
<svg version="1.1" id="Layer_1" xmlns="http://www.w3.org/2000/svg" xmlns:xlink="http://www.w3.org/1999/xlink" x="0px" y="0px"
	 viewBox="0 0 324.1 116.1" style="enable-background:new 0 0 324.1 116.1;" xml:space="preserve">
<style type="text/css">
	.st0{fill-rule:evenodd;clip-rule:evenodd;fill:#2F2E78;}
	.st1{fill:#E6252B;}
	.st2{fill:none;}
</style>
<g>
	<polygon points="303.1,72.1 303.1,66.1 300.9,66.1 300.9,64.9 306.4,64.9 306.4,66.1 304.3,66.1 304.3,72.1 	"/>
	<polygon points="307.7,72.1 307.7,64.9 309,64.9 311,68.3 313.1,64.9 314.4,64.9 314.4,72.1 313.2,72.1 313.2,66.9 311,70.3 
		311,70.3 308.9,67 308.9,72.1 	"/>
	<path class="st0" d="M267.4,92.5h26.4c1.3,0,2.3,1.1,2.3,2.4v15.4c0,1.3-1,2.4-2.3,2.4h-26.4c-1.3,0-2.3-1.1-2.3-2.4V94.9
		C265.1,93.6,266.1,92.5,267.4,92.5 M267.4,93.2l26.6,0c0.2,0,0.3,0.1,0.5,0.1c0.1,0.1,0.3,0.2,0.4,0.3c0.1,0.1,0.2,0.2,0.3,0.4
		c0.1,0.1,0.1,0.3,0.2,0.4c0,0.2,0.1,0.3,0.1,0.5l0,15.5c0,0.2-0.1,0.3-0.1,0.5c-0.1,0.2-0.1,0.3-0.2,0.4c-0.1,0.1-0.2,0.2-0.3,0.3
		c-0.1,0.1-0.3,0.2-0.4,0.2c-0.2,0-0.3,0.1-0.5,0.1l-26.6,0c-0.2,0-0.3-0.1-0.5-0.1c-0.2-0.1-0.3-0.1-0.4-0.3
		c-0.1-0.1-0.2-0.2-0.3-0.4c-0.1-0.1-0.1-0.3-0.2-0.4c0-0.2-0.1-0.3-0.1-0.5l0-15.5c0-0.2,0.1-0.3,0.1-0.5c0.1-0.2,0.1-0.3,0.2-0.4
		c0.1-0.1,0.2-0.2,0.3-0.3c0.1-0.1,0.3-0.2,0.4-0.2C267.1,93.2,267.3,93.2,267.4,93.2z"/>
	<polygon class="st0" points="279.7,96.9 273.5,96.9 269.7,98.6 268.1,104.7 270.6,108.2 276.6,108.2 277.6,104.2 271,107.5 
		273.5,97.4 278.5,101.2 	"/>
	<polygon class="st0" points="277.9,108.2 277.9,107.5 278.9,107.5 281.5,97.5 280.9,97.5 280.9,96.9 286.7,97 286.7,97.5 
		285.8,97.5 283.1,107.5 283.8,107.5 283.8,108.3 	"/>
	<polygon class="st0" points="284.4,108.3 284.4,107.5 285.3,107.5 288,97.5 287.3,97.5 287.3,97 293.1,97 293.1,97.5 292.3,97.5 
		289.5,107.6 290.2,107.6 290.2,108.3 	"/>
	<path d="M150.3,108.2V98h4c1.2,0,2.1,0.3,2.7,1c0.7,0.6,1,1.5,1,2.6v0c0,1.1-0.4,2-1.1,2.6c-0.7,0.6-1.7,0.9-2.8,0.9h-1.6v3.1
		L150.3,108.2L150.3,108.2z M152.4,103.1h1.7c0.5,0,0.9-0.1,1.2-0.4c0.3-0.3,0.5-0.7,0.5-1.1v0c0-0.5-0.2-0.9-0.5-1.2
		c-0.3-0.3-0.7-0.4-1.3-0.4h-1.7L152.4,103.1L152.4,103.1z"/>
	<path d="M159.6,108.2V98h4.5c1.2,0,2.2,0.3,2.8,1c0.6,0.6,0.8,1.4,0.8,2.3v0c0,1.6-0.7,2.6-2.1,3.2l2.4,3.6h-2.5l-2.1-3.3h-1.7v3.3
		H159.6z M161.7,102.9h2.2c0.5,0,0.9-0.1,1.2-0.4c0.3-0.3,0.4-0.6,0.4-1.1v0c0-0.5-0.1-0.8-0.4-1.1c-0.3-0.2-0.7-0.4-1.2-0.4h-2.1
		V102.9z"/>
	<polygon points="169.7,108.2 169.7,98 177,98 177,100 171.8,100 171.8,102 176.4,102 176.4,104 171.8,104 171.8,106.2 177.1,106.2 
		177.1,108.2 	"/>
	<path d="M182.5,108.3c-1.6,0-3-0.6-4.1-1.6l1.3-1.6c1,0.8,1.9,1.2,2.9,1.2c0.4,0,0.8-0.1,1-0.3c0.2-0.2,0.4-0.4,0.4-0.7v0
		c0-0.3-0.1-0.5-0.4-0.7c-0.3-0.2-0.8-0.4-1.6-0.6c-0.6-0.1-1-0.3-1.4-0.4c-0.3-0.1-0.7-0.3-1-0.6c-0.3-0.2-0.5-0.5-0.7-0.9
		c-0.1-0.3-0.2-0.8-0.2-1.3v0c0-0.9,0.3-1.7,1-2.2c0.6-0.6,1.5-0.8,2.5-0.8c1.4,0,2.6,0.4,3.6,1.3l-1.1,1.7c-0.9-0.7-1.8-1-2.5-1
		c-0.4,0-0.7,0.1-0.9,0.2c-0.2,0.2-0.3,0.4-0.3,0.6v0c0,0.3,0.1,0.6,0.4,0.7c0.3,0.2,0.8,0.4,1.7,0.6c1.1,0.3,1.8,0.7,2.3,1.1
		c0.5,0.5,0.7,1.1,0.7,2v0c0,1-0.3,1.8-1,2.3C184.4,108,183.5,108.3,182.5,108.3"/>
	<polygon points="187.9,108.2 187.9,98 195.2,98 195.2,100 190,100 190,102 194.6,102 194.6,104 190,104 190,106.2 195.3,106.2 
		195.3,108.2 	"/>
	<polygon points="197.2,108.2 197.2,98 199.2,98 203.8,104.2 203.8,98 205.9,98 205.9,108.2 204.1,108.2 199.3,101.7 199.3,108.2 	
		"/>
	<polygon points="210.5,108.2 210.5,100 207.5,100 207.5,98 215.6,98 215.6,100 212.6,100 212.6,108.2 	"/>
	<polygon points="217.2,108.2 217.2,98 224.6,98 224.6,100 219.4,100 219.4,102 224,102 224,104 219.4,104 219.4,106.2 224.7,106.2 
		224.7,108.2 	"/>
	<path d="M226.6,108.2V98h3.8c1.5,0,2.8,0.5,3.7,1.5c1,1,1.5,2.2,1.5,3.6v0c0,1.5-0.5,2.7-1.5,3.7c-1,1-2.2,1.5-3.7,1.5L226.6,108.2
		L226.6,108.2z M228.7,106.1h1.7c0.9,0,1.6-0.3,2.1-0.8c0.5-0.6,0.8-1.3,0.8-2.2v0c0-0.9-0.3-1.6-0.8-2.2c-0.5-0.6-1.3-0.9-2.1-0.9
		h-1.7V106.1z"/>
	<path d="M241.6,108.2V98h4.5c1.1,0,2,0.3,2.5,0.9c0.4,0.5,0.7,1,0.7,1.7v0c0,1-0.4,1.7-1.3,2.2c0.6,0.2,1.1,0.6,1.4,0.9
		c0.3,0.4,0.5,0.9,0.5,1.6v0c0,0.9-0.3,1.6-1,2.1c-0.6,0.5-1.5,0.7-2.7,0.7L241.6,108.2L241.6,108.2z M243.7,102.1h2
		c1,0,1.5-0.4,1.5-1.1v0c0-0.3-0.1-0.6-0.4-0.8c-0.2-0.2-0.6-0.3-1-0.3h-2.1L243.7,102.1L243.7,102.1z M243.7,106.2h2.5
		c1,0,1.5-0.4,1.5-1.1v0c0-0.7-0.5-1.1-1.6-1.1h-2.5L243.7,106.2L243.7,106.2z"/>
	<polygon points="254,108.2 254,104.1 250.3,98 252.8,98 255.1,102.1 257.5,98 259.9,98 256.1,104.1 256.1,108.2 	"/>
	<path d="M5.3,6.4h50.9v13.7H24.3v10.2h29.5v13.1H24.3v12.7H57v14.6H5.3V6.4z"/>
	<path d="M103.5,23.7l-8.5,29l-8.7-29H67.6l17,47.1h20.6l16.7-47.1L103.5,23.7z"/>
	<polygon class="st1" points="84.8,18.5 65.7,18.5 61.3,6.4 81.2,6.4 	"/>
	<polygon class="st1" points="127.9,6.4 123.6,18.5 105.1,18.5 108.6,6.4 	"/>
	<path d="M129.6,38.6c0-10.5,2.8-18.7,8.4-24.5c5.6-5.9,13.4-8.8,23.3-8.8c10.2,0,18.1,2.9,23.6,8.6c5.5,5.8,8.3,13.8,8.3,24.2
		c0,7.5-1.2,13.7-3.6,18.5c-2.4,4.8-5.9,8.6-10.5,11.2c-4.6,2.7-10.3,4-17.1,4c-6.9,0-12.7-1.2-17.2-3.5c-4.5-2.3-8.2-6-11-11
		C131,52.4,129.6,46.1,129.6,38.6z M148.6,38.7c0,6.5,1.2,11.2,3.5,14c2.3,2.8,5.4,4.3,9.4,4.3c4.1,0,7.2-1.4,9.5-4.2
		c2.2-2.8,3.4-7.8,3.4-15c0-6.1-1.2-10.5-3.5-13.3c-2.3-2.8-5.5-4.2-9.5-4.2c-3.8,0-6.9,1.4-9.2,4.3
		C149.7,27.4,148.6,32.1,148.6,38.7z"/>
	<path d="M204.6,6.4h19v48.5h29.6v15.8h-48.6V6.4z"/>
	<path d="M306.5,6.4c-0.5,0.7-1,1.4-1.4,2.1c-3.5,5.3-6.9,10.8-9.9,16.5c-0.9,1.6-1.8,3.2-2.6,4.9l-6.7,22.9l-1.6-5.2L272,6.4h-19.8
		l23.2,64.4h20.6l22.8-64.4L306.5,6.4z"/>
	<path class="st1" d="M321,6.3c0,0-0.1,0.1-0.1,0.1c-0.3,0.5-0.5,1.1-0.8,1.7c-3,6.7-5.9,13.6-8.7,20.5c-1.4,3.5-2.8,7.1-4.2,10.7
		c-0.9,2.4-1.8,4.9-2.7,7.4c-1.8,5-4.9,13.9-7.2,20.5c-0.3,1-0.7,2-1,2.8c-0.2,0.4-0.3,0.9-0.4,1.3h-20.7c0-0.1,0.1-0.3,0.2-0.4
		c2.2-6.2,6.3-17.3,8.6-22.9c0.1-0.1,0.1-0.2,0.2-0.4c1.1-2.5,2.2-5,3.4-7.5c1.1-2.3,2.1-4.5,3.2-6.8c0.6-1.1,1.1-2.2,1.7-3.4
		c0.8-1.6,1.7-3.2,2.6-4.9c3.1-5.7,6.4-11.2,9.9-16.5c0.5-0.7,0.9-1.4,1.4-2.1c0,0,0,0,0,0c0,0,0-0.1,0.1-0.1L321,6.3L321,6.3z"/>
</g>
<g>
	<path d="M4.6,84.6v-7.7h5.7v1.2H6v2h3.9v1.2H6v2.1h4.4v1.2H4.6z"/>
	<path d="M12,84.6v-7.7h1.4l2.3,3.6l2.3-3.6h1.4v7.7h-1.4v-5.5l-2.4,3.6h0l-2.4-3.6v5.5H12z"/>
	<path d="M21.7,84.6v-7.7h3c0.9,0,1.6,0.2,2.1,0.7c0.5,0.5,0.8,1.1,0.8,1.9v0c0,0.8-0.3,1.5-0.9,1.9s-1.3,0.7-2.2,0.7H23v2.5H21.7z
		 M23,80.9h1.6c0.5,0,0.9-0.1,1.2-0.4c0.3-0.3,0.5-0.6,0.5-1v0c0-0.4-0.1-0.8-0.4-1c-0.3-0.2-0.7-0.4-1.2-0.4H23V80.9z"/>
	<path d="M35.6,83.5c-0.8,0.8-1.7,1.2-2.9,1.2s-2.1-0.4-2.9-1.2c-0.8-0.8-1.1-1.7-1.1-2.8v0c0-1.1,0.4-2,1.1-2.8s1.7-1.2,2.9-1.2
		s2.1,0.4,2.9,1.2c0.8,0.8,1.1,1.7,1.1,2.8v0C36.8,81.8,36.4,82.8,35.6,83.5z M30.9,82.7c0.5,0.5,1.1,0.8,1.9,0.8s1.4-0.3,1.9-0.8
		s0.7-1.2,0.7-1.9v0c0-0.8-0.2-1.4-0.7-1.9S33.5,78,32.7,78s-1.4,0.3-1.9,0.8c-0.5,0.5-0.7,1.2-0.7,1.9v0
		C30.1,81.5,30.4,82.1,30.9,82.7z"/>
	<path d="M40.2,84.6l-2.7-7.8h1.5l1.8,5.7l1.9-5.7h1.1l1.9,5.7l1.8-5.7H49l-2.7,7.8h-1.2l-1.9-5.5l-1.9,5.5H40.2z"/>
	<path d="M50.4,84.6v-7.7h5.7v1.2h-4.4v2h3.9v1.2h-3.9v2.1h4.4v1.2H50.4z"/>
	<path d="M57.8,84.6v-7.7h3.4c1,0,1.7,0.3,2.2,0.8c0.4,0.4,0.6,1,0.6,1.7v0c0,0.6-0.2,1.1-0.5,1.5c-0.3,0.4-0.8,0.7-1.3,0.8l2.1,2.9
		h-1.6l-1.9-2.7h-1.7v2.7H57.8z M59.2,80.7h2c0.5,0,0.9-0.1,1.2-0.4s0.4-0.5,0.4-0.9v0c0-0.4-0.1-0.7-0.4-0.9
		c-0.3-0.2-0.7-0.3-1.2-0.3h-2V80.7z"/>
	<path d="M65.9,84.6v-7.7h1.4v7.7H65.9z"/>
	<path d="M69.4,84.6v-7.7h1.3l4.1,5.3v-5.3h1.3v7.7H75l-4.2-5.5v5.5H69.4z"/>
	<path d="M81.8,84.7c-1.2,0-2.2-0.4-2.9-1.1c-0.7-0.8-1.1-1.7-1.1-2.8v0c0-1.1,0.4-2,1.1-2.8c0.8-0.8,1.7-1.2,2.8-1.2
		c0.6,0,1.2,0.1,1.6,0.3c0.5,0.2,0.9,0.4,1.3,0.8l-0.9,1c-0.3-0.3-0.6-0.5-1-0.6c-0.3-0.1-0.7-0.2-1.2-0.2c-0.7,0-1.3,0.3-1.8,0.8
		c-0.5,0.5-0.7,1.2-0.7,1.9v0c0,0.8,0.2,1.5,0.7,2s1.1,0.8,1.9,0.8c0.7,0,1.3-0.2,1.9-0.6v-1.4h-2v-1.2H85v3.2
		C84.1,84.3,83,84.7,81.8,84.7z"/>
	<path d="M92.1,84.6v-6.4h-2.4v-1.3h6.2v1.3h-2.4v6.4H92.1z"/>
	<path d="M97.4,84.6v-7.7h1.4v3.2h3.7v-3.2h1.4v7.7h-1.4v-3.2h-3.7v3.2H97.4z"/>
	<path d="M105.9,84.6v-7.7h5.7v1.2h-4.4v2h3.9v1.2h-3.9v2.1h4.4v1.2H105.9z"/>
	<path d="M120.3,84.7c-1.2,0-2.2-0.4-2.9-1.1c-0.7-0.8-1.1-1.7-1.1-2.8v0c0-1.1,0.4-2,1.1-2.8c0.8-0.8,1.7-1.2,2.8-1.2
		c0.6,0,1.2,0.1,1.6,0.3c0.5,0.2,0.9,0.4,1.3,0.8l-0.9,1c-0.3-0.3-0.6-0.5-1-0.6c-0.3-0.1-0.7-0.2-1.2-0.2c-0.7,0-1.3,0.3-1.8,0.8
		c-0.5,0.5-0.7,1.2-0.7,1.9v0c0,0.8,0.2,1.5,0.7,2s1.1,0.8,1.9,0.8c0.7,0,1.3-0.2,1.9-0.6v-1.4h-2v-1.2h3.3v3.2
		C122.6,84.3,121.5,84.7,120.3,84.7z"/>
	<path d="M125.3,84.6v-7.7h1.4v6.5h4v1.2H125.3z"/>
	<path d="M138.3,83.5c-0.8,0.8-1.7,1.2-2.9,1.2s-2.1-0.4-2.9-1.2c-0.8-0.8-1.1-1.7-1.1-2.8v0c0-1.1,0.4-2,1.1-2.8s1.7-1.2,2.9-1.2
		s2.1,0.4,2.9,1.2c0.8,0.8,1.1,1.7,1.1,2.8v0C139.5,81.8,139.1,82.8,138.3,83.5z M133.6,82.7c0.5,0.5,1.1,0.8,1.9,0.8
		s1.4-0.3,1.9-0.8s0.7-1.2,0.7-1.9v0c0-0.8-0.2-1.4-0.7-1.9s-1.1-0.8-1.9-0.8s-1.4,0.3-1.9,0.8c-0.5,0.5-0.7,1.2-0.7,1.9v0
		C132.9,81.5,133.1,82.1,133.6,82.7z"/>
	<path d="M141.2,84.6v-7.7h3.5c0.9,0,1.6,0.2,2,0.7c0.3,0.3,0.5,0.8,0.5,1.3v0c0,0.8-0.4,1.3-1.1,1.7c1,0.3,1.5,1,1.5,1.9v0
		c0,0.7-0.3,1.2-0.8,1.6s-1.2,0.5-2.1,0.5H141.2z M142.5,80.1h1.8c0.4,0,0.8-0.1,1.1-0.3c0.3-0.2,0.4-0.4,0.4-0.8v0
		c0-0.3-0.1-0.5-0.4-0.7c-0.2-0.2-0.6-0.3-1-0.3h-1.9V80.1z M142.5,83.4h2.2c0.5,0,0.8-0.1,1.1-0.3c0.3-0.2,0.4-0.4,0.4-0.8v0
		c0-0.7-0.5-1-1.6-1h-2.1V83.4z"/>
	<path d="M148.5,84.6l3.4-7.8h1.3l3.4,7.8h-1.4l-0.8-1.9h-3.6l-0.8,1.9H148.5z M151.2,81.5h2.7l-1.3-3.1L151.2,81.5z"/>
	<path d="M158,84.6v-7.7h1.4v6.5h4v1.2H158z"/>
	<path d="M170.1,84.6v-6.4h-2.4v-1.3h6.2v1.3h-2.4v6.4H170.1z"/>
	<path d="M175.4,84.6v-7.7h5.7v1.2h-4.4v2h3.9v1.2h-3.9v2.1h4.4v1.2H175.4z"/>
	<path d="M186.4,84.7c-1.1,0-2-0.4-2.8-1.1c-0.7-0.8-1.1-1.7-1.1-2.8v0c0-1.1,0.4-2.1,1.1-2.8c0.7-0.8,1.7-1.2,2.8-1.2
		c0.7,0,1.2,0.1,1.7,0.3s0.9,0.5,1.3,0.9l-0.9,1c-0.7-0.6-1.4-1-2.2-1c-0.7,0-1.3,0.3-1.8,0.8c-0.5,0.5-0.7,1.2-0.7,1.9v0
		c0,0.8,0.2,1.4,0.7,1.9c0.5,0.5,1.1,0.8,1.8,0.8c0.4,0,0.8-0.1,1.2-0.2s0.7-0.4,1-0.8l0.9,0.9c-0.4,0.5-0.9,0.8-1.4,1
		S187.1,84.7,186.4,84.7z"/>
	<path d="M191,84.6v-7.7h1.4v3.2h3.7v-3.2h1.4v7.7H196v-3.2h-3.7v3.2H191z"/>
	<path d="M202.8,84.6v-7.7h5.7v1.2h-4.4v2h3.9v1.2h-3.9v2.1h4.4v1.2H202.8z"/>
	<path d="M210.2,84.6v-7.7h1.3l4.1,5.3v-5.3h1.3v7.7h-1.1l-4.2-5.5v5.5H210.2z"/>
	<path d="M220.9,84.6v-6.4h-2.4v-1.3h6.2v1.3h-2.4v6.4H220.9z"/>
	<path d="M226.2,84.6v-7.7h3.4c1,0,1.7,0.3,2.2,0.8c0.4,0.4,0.6,1,0.6,1.7v0c0,0.6-0.2,1.1-0.5,1.5c-0.3,0.4-0.8,0.7-1.3,0.8
		l2.1,2.9h-1.6l-1.9-2.7h-1.7v2.7H226.2z M227.5,80.7h2c0.5,0,0.9-0.1,1.2-0.4s0.4-0.5,0.4-0.9v0c0-0.4-0.1-0.7-0.4-0.9
		c-0.3-0.2-0.7-0.3-1.2-0.3h-2V80.7z"/>
	<path d="M234.2,84.6v-7.7h5.7v1.2h-4.4v2h3.9v1.2h-3.9v2.1h4.4v1.2H234.2z"/>
	<path d="M241.6,84.6v-7.7h3c0.9,0,1.6,0.2,2.1,0.7c0.5,0.5,0.8,1.1,0.8,1.9v0c0,0.8-0.3,1.5-0.9,1.9s-1.3,0.7-2.2,0.7H243v2.5
		H241.6z M243,80.9h1.6c0.5,0,0.9-0.1,1.2-0.4c0.3-0.3,0.5-0.6,0.5-1v0c0-0.4-0.1-0.8-0.4-1c-0.3-0.2-0.7-0.4-1.2-0.4H243V80.9z"/>
	<path d="M249.1,84.6v-7.7h3.4c1,0,1.7,0.3,2.2,0.8c0.4,0.4,0.6,1,0.6,1.7v0c0,0.6-0.2,1.1-0.5,1.5c-0.3,0.4-0.8,0.7-1.3,0.8
		l2.1,2.9H254l-1.9-2.7h-1.7v2.7H249.1z M250.4,80.7h2c0.5,0,0.9-0.1,1.2-0.4s0.4-0.5,0.4-0.9v0c0-0.4-0.1-0.7-0.4-0.9
		c-0.3-0.2-0.7-0.3-1.2-0.3h-2V80.7z"/>
	<path d="M257.1,84.6v-7.7h5.7v1.2h-4.4v2h3.9v1.2h-3.9v2.1h4.4v1.2H257.1z"/>
	<path d="M264.5,84.6v-7.7h1.3l4.1,5.3v-5.3h1.3v7.7h-1.1l-4.2-5.5v5.5H264.5z"/>
	<path d="M273.3,84.6v-7.7h5.7v1.2h-4.4v2h3.9v1.2h-3.9v2.1h4.4v1.2H273.3z"/>
	<path d="M283.9,84.7c-1,0-1.8-0.3-2.4-0.9c-0.6-0.6-0.9-1.4-0.9-2.5v-4.4h1.4v4.4c0,0.7,0.2,1.2,0.5,1.6s0.8,0.6,1.4,0.6
		s1.1-0.2,1.4-0.5c0.3-0.4,0.5-0.9,0.5-1.6v-4.4h1.4v4.4c0,1.1-0.3,2-0.9,2.6C285.7,84.4,284.9,84.7,283.9,84.7z"/>
	<path d="M289.1,84.6v-7.7h3.4c1,0,1.7,0.3,2.2,0.8c0.4,0.4,0.6,1,0.6,1.7v0c0,0.6-0.2,1.1-0.5,1.5c-0.3,0.4-0.8,0.7-1.3,0.8
		l2.1,2.9H294l-1.9-2.7h-1.7v2.7H289.1z M290.5,80.7h2c0.5,0,0.9-0.1,1.2-0.4s0.4-0.5,0.4-0.9v0c0-0.4-0.1-0.7-0.4-0.9
		c-0.3-0.2-0.7-0.3-1.2-0.3h-2V80.7z"/>
</g>
</svg>
